<svg xmlns="http://www.w3.org/2000/svg" viewBox="0 0 64 64" width="64" height="64">
  <defs>
    <clipPath id="ananasBody"><ellipse cx="32" cy="41" rx="15" ry="18"/></clipPath>
  </defs>
  <!-- Blattkrone (Ananas) -->
  <g fill="#3FA34D" stroke="#2E7D38" stroke-width="0.7" stroke-linejoin="round">
    <path d="M32 26 L21 22 L25 13 Z"/>
    <path d="M32 26 L43 22 L39 13 Z"/>
    <path d="M32 25 L24 20 L28 8 Z"/>
    <path d="M32 25 L40 20 L36 8 Z"/>
    <path d="M32 24 L27 11 L32 3 L37 11 Z"/>
  </g>
  <!-- Koerper (Ananas) -->
  <ellipse cx="32" cy="41" rx="15" ry="18" fill="#F2A83B" stroke="#D5871C" stroke-width="1.6"/>
  <ellipse cx="25" cy="33" rx="3.5" ry="5.5" fill="#FFFFFF" opacity="0.12" clip-path="url(#ananasBody)"/>
  <!-- WMI-Meissner-Motiv: Magnetfeldlinien weichen dem Supraleiter (Kreis) aus,
       keine Linie geht hindurch. Auf den Ananas-Koerper geclippt. -->
  <g clip-path="url(#ananasBody)" fill="none" stroke="#15375E" stroke-width="1.6" stroke-linecap="round" stroke-linejoin="round">
    <path d="M 13.00 38.00 L 13.59 38.00 L 14.19 38.00 L 14.78 38.00 L 15.38 38.00 L 15.97 38.00 L 16.56 38.00 L 17.16 38.00 L 17.75 38.00 L 18.34 38.00 L 18.94 38.00 L 19.53 38.00 L 20.12 38.00 L 20.72 38.00 L 21.31 38.00 L 21.91 38.00 L 22.50 38.00 L 23.09 38.00 L 23.69 38.00 L 24.28 38.00 L 24.88 38.00 L 25.47 38.00 L 26.06 38.00 L 26.66 38.00 L 27.25 37.18 L 27.84 36.18 L 28.44 35.51 L 29.03 35.03 L 29.62 34.67 L 30.22 34.41 L 30.81 34.24 L 31.41 34.13 L 32.00 34.10 L 32.59 34.13 L 33.19 34.24 L 33.78 34.41 L 34.38 34.67 L 34.97 35.03 L 35.56 35.51 L 36.16 36.18 L 36.75 37.18 L 37.34 38.00 L 37.94 38.00 L 38.53 38.00 L 39.12 38.00 L 39.72 38.00 L 40.31 38.00 L 40.91 38.00 L 41.50 38.00 L 42.09 38.00 L 42.69 38.00 L 43.28 38.00 L 43.88 38.00 L 44.47 38.00 L 45.06 38.00 L 45.66 38.00 L 46.25 38.00 L 46.84 38.00 L 47.44 38.00 L 48.03 38.00 L 48.62 38.00 L 49.22 38.00 L 49.81 38.00 L 50.41 38.00 L 51.00 38.00"/>
    <path d="M 13.00 34.00 L 13.59 34.00 L 14.19 34.00 L 14.78 34.00 L 15.38 34.00 L 15.97 34.00 L 16.56 34.00 L 17.16 34.00 L 17.75 34.00 L 18.34 34.00 L 18.94 34.00 L 19.53 34.00 L 20.12 34.00 L 20.72 34.00 L 21.31 34.00 L 21.91 34.00 L 22.50 34.00 L 23.09 34.00 L 23.69 34.00 L 24.28 34.00 L 24.88 34.00 L 25.47 34.00 L 26.06 34.00 L 26.66 34.00 L 27.25 34.00 L 27.84 34.00 L 28.44 34.00 L 29.03 34.00 L 29.62 34.00 L 30.22 34.00 L 30.81 34.00 L 31.41 34.00 L 32.00 34.00 L 32.59 34.00 L 33.19 34.00 L 33.78 34.00 L 34.38 34.00 L 34.97 34.00 L 35.56 34.00 L 36.16 34.00 L 36.75 34.00 L 37.34 34.00 L 37.94 34.00 L 38.53 34.00 L 39.12 34.00 L 39.72 34.00 L 40.31 34.00 L 40.91 34.00 L 41.50 34.00 L 42.09 34.00 L 42.69 34.00 L 43.28 34.00 L 43.88 34.00 L 44.47 34.00 L 45.06 34.00 L 45.66 34.00 L 46.25 34.00 L 46.84 34.00 L 47.44 34.00 L 48.03 34.00 L 48.62 34.00 L 49.22 34.00 L 49.81 34.00 L 50.41 34.00 L 51.00 34.00"/>
    <path d="M 13.00 30.00 L 13.59 30.00 L 14.19 30.00 L 14.78 30.00 L 15.38 30.00 L 15.97 30.00 L 16.56 30.00 L 17.16 30.00 L 17.75 30.00 L 18.34 30.00 L 18.94 30.00 L 19.53 30.00 L 20.12 30.00 L 20.72 30.00 L 21.31 30.00 L 21.91 30.00 L 22.50 30.00 L 23.09 30.00 L 23.69 30.00 L 24.28 30.00 L 24.88 30.00 L 25.47 30.00 L 26.06 30.00 L 26.66 30.00 L 27.25 30.00 L 27.84 30.00 L 28.44 30.00 L 29.03 30.00 L 29.62 30.00 L 30.22 30.00 L 30.81 30.00 L 31.41 30.00 L 32.00 30.00 L 32.59 30.00 L 33.19 30.00 L 33.78 30.00 L 34.38 30.00 L 34.97 30.00 L 35.56 30.00 L 36.16 30.00 L 36.75 30.00 L 37.34 30.00 L 37.94 30.00 L 38.53 30.00 L 39.12 30.00 L 39.72 30.00 L 40.31 30.00 L 40.91 30.00 L 41.50 30.00 L 42.09 30.00 L 42.69 30.00 L 43.28 30.00 L 43.88 30.00 L 44.47 30.00 L 45.06 30.00 L 45.66 30.00 L 46.25 30.00 L 46.84 30.00 L 47.44 30.00 L 48.03 30.00 L 48.62 30.00 L 49.22 30.00 L 49.81 30.00 L 50.41 30.00 L 51.00 30.00"/>
    <path d="M 13.00 26.00 L 13.59 26.00 L 14.19 26.00 L 14.78 26.00 L 15.38 26.00 L 15.97 26.00 L 16.56 26.00 L 17.16 26.00 L 17.75 26.00 L 18.34 26.00 L 18.94 26.00 L 19.53 26.00 L 20.12 26.00 L 20.72 26.00 L 21.31 26.00 L 21.91 26.00 L 22.50 26.00 L 23.09 26.00 L 23.69 26.00 L 24.28 26.00 L 24.88 26.00 L 25.47 26.00 L 26.06 26.00 L 26.66 26.00 L 27.25 26.00 L 27.84 26.00 L 28.44 26.00 L 29.03 26.00 L 29.62 26.00 L 30.22 26.00 L 30.81 26.00 L 31.41 26.00 L 32.00 26.00 L 32.59 26.00 L 33.19 26.00 L 33.78 26.00 L 34.38 26.00 L 34.97 26.00 L 35.56 26.00 L 36.16 26.00 L 36.75 26.00 L 37.34 26.00 L 37.94 26.00 L 38.53 26.00 L 39.12 26.00 L 39.72 26.00 L 40.31 26.00 L 40.91 26.00 L 41.50 26.00 L 42.09 26.00 L 42.69 26.00 L 43.28 26.00 L 43.88 26.00 L 44.47 26.00 L 45.06 26.00 L 45.66 26.00 L 46.25 26.00 L 46.84 26.00 L 47.44 26.00 L 48.03 26.00 L 48.62 26.00 L 49.22 26.00 L 49.81 26.00 L 50.41 26.00 L 51.00 26.00"/>
    <path d="M 13.00 44.00 L 13.59 44.00 L 14.19 44.00 L 14.78 44.00 L 15.38 44.00 L 15.97 44.00 L 16.56 44.00 L 17.16 44.00 L 17.75 44.00 L 18.34 44.00 L 18.94 44.00 L 19.53 44.00 L 20.12 44.00 L 20.72 44.00 L 21.31 44.00 L 21.91 44.00 L 22.50 44.00 L 23.09 44.00 L 23.69 44.00 L 24.28 44.00 L 24.88 44.00 L 25.47 44.00 L 26.06 44.00 L 26.66 44.00 L 27.25 44.82 L 27.84 45.82 L 28.44 46.49 L 29.03 46.97 L 29.62 47.33 L 30.22 47.59 L 30.81 47.76 L 31.41 47.87 L 32.00 47.90 L 32.59 47.87 L 33.19 47.76 L 33.78 47.59 L 34.38 47.33 L 34.97 46.97 L 35.56 46.49 L 36.16 45.82 L 36.75 44.82 L 37.34 44.00 L 37.94 44.00 L 38.53 44.00 L 39.12 44.00 L 39.72 44.00 L 40.31 44.00 L 40.91 44.00 L 41.50 44.00 L 42.09 44.00 L 42.69 44.00 L 43.28 44.00 L 43.88 44.00 L 44.47 44.00 L 45.06 44.00 L 45.66 44.00 L 46.25 44.00 L 46.84 44.00 L 47.44 44.00 L 48.03 44.00 L 48.62 44.00 L 49.22 44.00 L 49.81 44.00 L 50.41 44.00 L 51.00 44.00"/>
    <path d="M 13.00 48.00 L 13.59 48.00 L 14.19 48.00 L 14.78 48.00 L 15.38 48.00 L 15.97 48.00 L 16.56 48.00 L 17.16 48.00 L 17.75 48.00 L 18.34 48.00 L 18.94 48.00 L 19.53 48.00 L 20.12 48.00 L 20.72 48.00 L 21.31 48.00 L 21.91 48.00 L 22.50 48.00 L 23.09 48.00 L 23.69 48.00 L 24.28 48.00 L 24.88 48.00 L 25.47 48.00 L 26.06 48.00 L 26.66 48.00 L 27.25 48.00 L 27.84 48.00 L 28.44 48.00 L 29.03 48.00 L 29.62 48.00 L 30.22 48.00 L 30.81 48.00 L 31.41 48.00 L 32.00 48.00 L 32.59 48.00 L 33.19 48.00 L 33.78 48.00 L 34.38 48.00 L 34.97 48.00 L 35.56 48.00 L 36.16 48.00 L 36.75 48.00 L 37.34 48.00 L 37.94 48.00 L 38.53 48.00 L 39.12 48.00 L 39.72 48.00 L 40.31 48.00 L 40.91 48.00 L 41.50 48.00 L 42.09 48.00 L 42.69 48.00 L 43.28 48.00 L 43.88 48.00 L 44.47 48.00 L 45.06 48.00 L 45.66 48.00 L 46.25 48.00 L 46.84 48.00 L 47.44 48.00 L 48.03 48.00 L 48.62 48.00 L 49.22 48.00 L 49.81 48.00 L 50.41 48.00 L 51.00 48.00"/>
    <path d="M 13.00 52.00 L 13.59 52.00 L 14.19 52.00 L 14.78 52.00 L 15.38 52.00 L 15.97 52.00 L 16.56 52.00 L 17.16 52.00 L 17.75 52.00 L 18.34 52.00 L 18.94 52.00 L 19.53 52.00 L 20.12 52.00 L 20.72 52.00 L 21.31 52.00 L 21.91 52.00 L 22.50 52.00 L 23.09 52.00 L 23.69 52.00 L 24.28 52.00 L 24.88 52.00 L 25.47 52.00 L 26.06 52.00 L 26.66 52.00 L 27.25 52.00 L 27.84 52.00 L 28.44 52.00 L 29.03 52.00 L 29.62 52.00 L 30.22 52.00 L 30.81 52.00 L 31.41 52.00 L 32.00 52.00 L 32.59 52.00 L 33.19 52.00 L 33.78 52.00 L 34.38 52.00 L 34.97 52.00 L 35.56 52.00 L 36.16 52.00 L 36.75 52.00 L 37.34 52.00 L 37.94 52.00 L 38.53 52.00 L 39.12 52.00 L 39.72 52.00 L 40.31 52.00 L 40.91 52.00 L 41.50 52.00 L 42.09 52.00 L 42.69 52.00 L 43.28 52.00 L 43.88 52.00 L 44.47 52.00 L 45.06 52.00 L 45.66 52.00 L 46.25 52.00 L 46.84 52.00 L 47.44 52.00 L 48.03 52.00 L 48.62 52.00 L 49.22 52.00 L 49.81 52.00 L 50.41 52.00 L 51.00 52.00"/>
    <path d="M 13.00 56.00 L 13.59 56.00 L 14.19 56.00 L 14.78 56.00 L 15.38 56.00 L 15.97 56.00 L 16.56 56.00 L 17.16 56.00 L 17.75 56.00 L 18.34 56.00 L 18.94 56.00 L 19.53 56.00 L 20.12 56.00 L 20.72 56.00 L 21.31 56.00 L 21.91 56.00 L 22.50 56.00 L 23.09 56.00 L 23.69 56.00 L 24.28 56.00 L 24.88 56.00 L 25.47 56.00 L 26.06 56.00 L 26.66 56.00 L 27.25 56.00 L 27.84 56.00 L 28.44 56.00 L 29.03 56.00 L 29.62 56.00 L 30.22 56.00 L 30.81 56.00 L 31.41 56.00 L 32.00 56.00 L 32.59 56.00 L 33.19 56.00 L 33.78 56.00 L 34.38 56.00 L 34.97 56.00 L 35.56 56.00 L 36.16 56.00 L 36.75 56.00 L 37.34 56.00 L 37.94 56.00 L 38.53 56.00 L 39.12 56.00 L 39.72 56.00 L 40.31 56.00 L 40.91 56.00 L 41.50 56.00 L 42.09 56.00 L 42.69 56.00 L 43.28 56.00 L 43.88 56.00 L 44.47 56.00 L 45.06 56.00 L 45.66 56.00 L 46.25 56.00 L 46.84 56.00 L 47.44 56.00 L 48.03 56.00 L 48.62 56.00 L 49.22 56.00 L 49.81 56.00 L 50.41 56.00 L 51.00 56.00"/>
  </g>
  <!-- Supraleiter (feldfreies Inneres) -->
  <circle cx="32" cy="41" r="5.2" fill="#F2A83B" stroke="#15375E" stroke-width="1.8" clip-path="url(#ananasBody)"/>
</svg>
