<svg xmlns="http://www.w3.org/2000/svg" viewBox="0 0 64 64" width="64" height="64">
  <defs>
    <clipPath id="ananasBody"><ellipse cx="32" cy="41" rx="15" ry="18"/></clipPath>
  </defs>
  <!-- Blattkrone (Ananas) -->
  <g fill="#3FA34D" stroke="#2E7D38" stroke-width="0.7" stroke-linejoin="round">
    <path d="M32 26 L21 22 L25 13 Z"/>
    <path d="M32 26 L43 22 L39 13 Z"/>
    <path d="M32 25 L24 20 L28 8 Z"/>
    <path d="M32 25 L40 20 L36 8 Z"/>
    <path d="M32 24 L27 11 L32 3 L37 11 Z"/>
  </g>
  <!-- Koerper (Ananas) -->
  <ellipse cx="32" cy="41" rx="15" ry="18" fill="#F2A83B" stroke="#D5871C" stroke-width="1.6"/>
  <!-- dezenter Glanz -->
  <ellipse cx="25" cy="33" rx="3.5" ry="5.5" fill="#FFFFFF" opacity="0.12" clip-path="url(#ananasBody)"/>
  <!-- WMI-Motiv: Feldlinien, die sich um einen zentralen Kreis biegen (Navy),
       auf den Ananas-Koerper geclippt -> Ananas und Walther-Meissner-Logo verschmolzen -->
  <g clip-path="url(#ananasBody)" fill="none" stroke="#15375E" stroke-width="1.7" stroke-linecap="round">
    <path d="M13 29 Q 32 26 51 29"/>
    <path d="M13 34 Q 32 30.5 51 34"/>
    <path d="M13 41 L 25.5 41"/>
    <path d="M38.5 41 L 51 41"/>
    <path d="M13 48 Q 32 51.5 51 48"/>
    <path d="M13 53 Q 32 56 51 53"/>
  </g>
  <circle cx="32" cy="41" r="4.3" fill="#FAFAF6" stroke="#15375E" stroke-width="1.8" clip-path="url(#ananasBody)"/>
</svg>
