<svg xmlns="http://www.w3.org/2000/svg" viewBox="0 0 64 64" width="64" height="64">
  <defs>
    <clipPath id="ananasBody">
      <ellipse cx="32" cy="41" rx="15" ry="18"/>
    </clipPath>
  </defs>
  <!-- Blattkrone -->
  <g fill="#3FA34D" stroke="#2E7D38" stroke-width="0.7" stroke-linejoin="round">
    <path d="M32 26 L21 22 L25 13 Z"/>
    <path d="M32 26 L43 22 L39 13 Z"/>
    <path d="M32 25 L24 20 L28 8 Z"/>
    <path d="M32 25 L40 20 L36 8 Z"/>
    <path d="M32 24 L27 11 L32 3 L37 11 Z"/>
  </g>
  <!-- Koerper -->
  <ellipse cx="32" cy="41" rx="15" ry="18" fill="#F2A83B" stroke="#D5871C" stroke-width="1.6"/>
  <!-- Diamant-Schraffur -->
  <g clip-path="url(#ananasBody)" stroke="#C07A18" stroke-width="1.0" opacity="0.9" stroke-linecap="round">
    <line x1="17.5" y1="36.5" x2="31.0" y2="23.0"/>
    <line x1="17.1" y1="42.9" x2="36.2" y2="23.8"/>
    <line x1="18.1" y1="47.9" x2="40.1" y2="25.9"/>
    <line x1="20.1" y1="51.9" x2="43.1" y2="28.9"/>
    <line x1="22.8" y1="55.2" x2="45.3" y2="32.7"/>
    <line x1="26.3" y1="57.7" x2="46.7" y2="37.3"/>
    <line x1="31.1" y1="58.9" x2="46.9" y2="43.1"/>
    <line x1="39.2" y1="56.8" x2="43.6" y2="52.4"/>
    <line x1="35.5" y1="23.5" x2="45.7" y2="33.7"/>
    <line x1="29.3" y1="23.3" x2="47.0" y2="41.0"/>
    <line x1="25.1" y1="25.1" x2="46.3" y2="46.3"/>
    <line x1="21.8" y1="27.8" x2="44.6" y2="50.6"/>
    <line x1="19.4" y1="31.4" x2="42.2" y2="54.2"/>
    <line x1="17.7" y1="35.7" x2="38.9" y2="56.9"/>
    <line x1="17.0" y1="41.0" x2="34.7" y2="58.7"/>
    <line x1="18.3" y1="48.3" x2="28.5" y2="58.5"/>
  </g>
  <!-- Glanzlicht -->
  <ellipse cx="26" cy="34" rx="4.5" ry="7" fill="#FFFFFF" opacity="0.18"/>
</svg>
